<svg width="32" height="32" viewBox="0 0 32 32" fill="none" xmlns="http://www.w3.org/2000/svg">
<g clip-path="url(#clip0_164_180)">
<path d="M14.2696 11.3394V13.6344H12.5896V16.4394H14.2696V24.7778H17.7229V16.4394H20.0396C20.0396 16.4394 20.2579 15.0944 20.3629 13.6228H17.7363V11.7061C17.7363 11.4178 18.1129 11.0328 18.4863 11.0328H20.3663V8.11108H17.8079C14.1846 8.11108 14.2696 10.9194 14.2696 11.3394Z" fill="#2D325A"/>
<path d="M6.29635 3.03709C5.43194 3.03709 4.60294 3.38048 3.99171 3.99171C3.38048 4.60294 3.03709 5.43194 3.03709 6.29635V25.8519C3.03709 26.7163 3.38048 27.5453 3.99171 28.1565C4.60294 28.7678 5.43194 29.1112 6.29635 29.1112H25.8519C26.7163 29.1112 27.5453 28.7678 28.1565 28.1565C28.7678 27.5453 29.1112 26.7163 29.1112 25.8519V6.29635C29.1112 5.43194 28.7678 4.60294 28.1565 3.99171C27.5453 3.38048 26.7163 3.03709 25.8519 3.03709H6.29635ZM6.29635 -0.222168H25.8519C27.5807 -0.222168 29.2387 0.464603 30.4612 1.68706C31.6837 2.90952 32.3704 4.56753 32.3704 6.29635V25.8519C32.3704 27.5807 31.6837 29.2387 30.4612 30.4612C29.2387 31.6837 27.5807 32.3704 25.8519 32.3704H6.29635C4.56753 32.3704 2.90952 31.6837 1.68706 30.4612C0.464603 29.2387 -0.222168 27.5807 -0.222168 25.8519V6.29635C-0.222168 4.56753 0.464603 2.90952 1.68706 1.68706C2.90952 0.464603 4.56753 -0.222168 6.29635 -0.222168Z" fill="#2D325A"/>
</g>
<defs>
<clipPath id="clip0_164_180">
<rect width="32" height="32" fill="white"/>
</clipPath>
</defs>
</svg>
