<svg width="32" height="32" viewBox="0 0 32 32" fill="none" xmlns="http://www.w3.org/2000/svg">
<g clip-path="url(#clip0_164_177)">
<path fill-rule="evenodd" clip-rule="evenodd" d="M9.28164 -0.198365C11.0194 -0.278365 11.5735 -0.296143 16.0002 -0.296143C20.4268 -0.296143 20.9809 -0.276883 22.7172 -0.198365C24.4535 -0.119846 25.6387 0.157191 26.6757 0.558672C27.7616 0.969043 28.7468 1.61052 29.5616 2.44015C30.3913 3.25349 31.0313 4.23719 31.4402 5.3246C31.8431 6.36164 32.1187 7.54682 32.1987 9.28015C32.2787 11.0209 32.2964 11.575 32.2964 16.0002C32.2964 20.4268 32.2772 20.9809 32.1987 22.7187C32.1202 24.452 31.8431 25.6372 31.4402 26.6742C31.0313 27.7618 30.3902 28.7471 29.5616 29.5616C28.7468 30.3913 27.7616 31.0313 26.6757 31.4402C25.6387 31.8431 24.4535 32.1187 22.7202 32.1987C20.9809 32.2787 20.4268 32.2964 16.0002 32.2964C11.5735 32.2964 11.0194 32.2772 9.28164 32.1987C7.5483 32.1202 6.36312 31.8431 5.32608 31.4402C4.23855 31.0312 3.25322 30.3902 2.43867 29.5616C1.60961 28.7478 0.968027 27.7629 0.558672 26.6757C0.157191 25.6387 -0.118365 24.4535 -0.198365 22.7202C-0.278365 20.9794 -0.296143 20.4253 -0.296143 16.0002C-0.296143 11.5735 -0.276883 11.0194 -0.198365 9.28312C-0.119846 7.54682 0.157191 6.36164 0.558672 5.3246C0.968632 4.23731 1.6107 3.25247 2.44015 2.43867C3.25355 1.60978 4.23789 0.968218 5.3246 0.558672C6.36164 0.157191 7.54682 -0.118365 9.28015 -0.198365H9.28164ZM22.5853 2.73497C20.8668 2.65645 20.3513 2.64015 16.0002 2.64015C11.649 2.64015 11.1335 2.65645 9.41497 2.73497C7.82534 2.80756 6.96312 3.07275 6.3883 3.29645C5.6283 3.59275 5.0846 3.94386 4.51423 4.51423C3.97355 5.04023 3.55746 5.68057 3.29645 6.3883C3.07275 6.96312 2.80756 7.82534 2.73497 9.41497C2.65645 11.1335 2.64015 11.649 2.64015 16.0002C2.64015 20.3513 2.65645 20.8668 2.73497 22.5853C2.80756 24.175 3.07275 25.0372 3.29645 25.612C3.55719 26.3187 3.97349 26.9602 4.51423 27.4861C5.04015 28.0268 5.68163 28.4431 6.3883 28.7039C6.96312 28.9276 7.82534 29.1927 9.41497 29.2653C11.1335 29.3439 11.6476 29.3602 16.0002 29.3602C20.3527 29.3602 20.8668 29.3439 22.5853 29.2653C24.175 29.1927 25.0372 28.9276 25.612 28.7039C26.372 28.4076 26.9157 28.0564 27.4861 27.4861C28.0268 26.9602 28.4431 26.3187 28.7039 25.612C28.9276 25.0372 29.1927 24.175 29.2653 22.5853C29.3439 20.8668 29.3602 20.3513 29.3602 16.0002C29.3602 11.649 29.3439 11.1335 29.2653 9.41497C29.1927 7.82534 28.9276 6.96312 28.7039 6.3883C28.4076 5.6283 28.0564 5.0846 27.4861 4.51423C26.96 3.97359 26.3197 3.5575 25.612 3.29645C25.0372 3.07275 24.175 2.80756 22.5853 2.73497ZM13.9187 21.0239C15.0811 21.5078 16.3755 21.5731 17.5808 21.2086C18.786 20.8442 19.8274 20.0726 20.527 19.0257C21.2266 17.9788 21.541 16.7214 21.4165 15.4685C21.2921 14.2155 20.7365 13.0446 19.8446 12.1557C19.2761 11.5875 18.5886 11.1525 17.8318 10.8819C17.0749 10.6112 16.2675 10.5118 15.4676 10.5907C14.6677 10.6696 13.8952 10.9249 13.2058 11.3381C12.5164 11.7514 11.9272 12.3124 11.4806 12.9807C11.034 13.649 10.7412 14.408 10.6231 15.2031C10.5051 15.9981 10.5648 16.8095 10.798 17.5787C11.0312 18.3479 11.432 19.0559 11.9716 19.6516C12.5112 20.2473 13.1762 20.716 13.9187 21.0239ZM10.0772 10.0772C10.855 9.29938 11.7784 8.68238 12.7947 8.26143C13.8109 7.84048 14.9002 7.62382 16.0002 7.62382C17.1001 7.62382 18.1894 7.84048 19.2056 8.26143C20.2219 8.68238 21.1453 9.29938 21.9231 10.0772C22.7009 10.855 23.3179 11.7784 23.7389 12.7947C24.1598 13.8109 24.3765 14.9002 24.3765 16.0002C24.3765 17.1001 24.1598 18.1894 23.7389 19.2056C23.3179 20.2219 22.7009 21.1453 21.9231 21.9231C20.3522 23.494 18.2217 24.3765 16.0002 24.3765C13.7786 24.3765 11.6481 23.494 10.0772 21.9231C8.50632 20.3522 7.62382 18.2217 7.62382 16.0002C7.62382 13.7786 8.50632 11.6481 10.0772 10.0772ZM26.2342 8.87126C26.427 8.68944 26.5813 8.47079 26.688 8.22826C26.7947 7.98573 26.8517 7.72426 26.8556 7.45931C26.8594 7.19436 26.8101 6.93133 26.7105 6.6858C26.6109 6.44026 26.463 6.21721 26.2757 6.02984C26.0883 5.84248 25.8652 5.69461 25.6197 5.59499C25.3742 5.49538 25.1111 5.44604 24.8462 5.44991C24.5812 5.45377 24.3198 5.51075 24.0772 5.61748C23.8347 5.72421 23.6161 5.87852 23.4342 6.07126C23.0806 6.44612 22.887 6.94404 22.8945 7.45931C22.902 7.97458 23.1101 8.46664 23.4745 8.83103C23.8389 9.19542 24.3309 9.40345 24.8462 9.41097C25.3615 9.41848 25.8594 9.22488 26.2342 8.87126Z" fill="#2D325A"/>
</g>
<defs>
<clipPath id="clip0_164_177">
<rect width="32" height="32" fill="white"/>
</clipPath>
</defs>
</svg>
