<svg width="539" height="478" viewBox="0 0 539 478" fill="none" xmlns="http://www.w3.org/2000/svg">
<g filter="url(#filter0_i_35_26)">
<path fill-rule="evenodd" clip-rule="evenodd" d="M428 174.265C428 170.395 431.13 167.265 435 167.265C438.87 167.265 442 170.395 442 174.265C442 178.435 437.58 184.185 435.77 186.375C435.37 186.855 434.64 186.855 434.24 186.375C432.42 184.185 428 178.435 428 174.265ZM432.5 174.265C432.5 175.645 433.62 176.765 435 176.765C436.38 176.765 437.5 175.645 437.5 174.265C437.5 172.885 436.38 171.765 435 171.765C433.62 171.765 432.5 172.885 432.5 174.265Z" fill="black"/>
</g>
<path d="M367.496 187C367.357 187 367.288 186.931 367.288 186.792C367.288 186.621 367.357 186.536 367.496 186.536C367.869 186.536 368.163 186.472 368.376 186.344C368.589 186.205 368.781 185.949 368.952 185.576C369.037 185.405 369.16 185.117 369.32 184.712C369.491 184.307 369.683 183.821 369.896 183.256C370.12 182.691 370.355 182.088 370.6 181.448C370.845 180.808 371.091 180.168 371.336 179.528C371.581 178.888 371.805 178.296 372.008 177.752C372.221 177.197 372.397 176.723 372.536 176.328C372.685 175.933 372.787 175.667 372.84 175.528C372.893 175.389 372.952 175.299 373.016 175.256C373.091 175.213 373.213 175.192 373.384 175.192C373.555 175.192 373.677 175.213 373.752 175.256C373.827 175.299 373.891 175.389 373.944 175.528C374.029 175.741 374.163 176.088 374.344 176.568C374.536 177.048 374.755 177.603 375 178.232C375.245 178.861 375.501 179.523 375.768 180.216C376.035 180.899 376.291 181.565 376.536 182.216C376.792 182.867 377.021 183.459 377.224 183.992C377.427 184.515 377.587 184.92 377.704 185.208C377.896 185.699 378.099 186.045 378.312 186.248C378.536 186.44 378.749 186.536 378.952 186.536C379.091 186.536 379.16 186.621 379.16 186.792C379.16 186.931 379.091 187 378.952 187C378.845 187 378.627 187 378.296 187C377.965 186.989 377.523 186.984 376.968 186.984C376.509 186.984 376.072 186.989 375.656 187C375.24 187 374.979 187 374.872 187C374.733 187 374.664 186.931 374.664 186.792C374.664 186.621 374.733 186.536 374.872 186.536C375.213 186.536 375.448 186.483 375.576 186.376C375.715 186.259 375.784 186.125 375.784 185.976C375.784 185.816 375.757 185.683 375.704 185.576C375.693 185.555 375.656 185.448 375.592 185.256C375.528 185.064 375.448 184.835 375.352 184.568C375.267 184.291 375.176 184.019 375.08 183.752C374.984 183.475 374.904 183.24 374.84 183.048H370.52C370.456 183.261 370.371 183.533 370.264 183.864C370.168 184.184 370.077 184.499 369.992 184.808C369.917 185.117 369.88 185.368 369.88 185.56C369.88 185.955 369.976 186.216 370.168 186.344C370.371 186.472 370.648 186.536 371 186.536C371.139 186.536 371.208 186.621 371.208 186.792C371.208 186.931 371.139 187 371 187C370.893 187 370.691 187 370.392 187C370.104 186.989 369.725 186.984 369.256 186.984C368.84 186.984 368.472 186.989 368.152 187C367.832 187 367.613 187 367.496 187ZM370.728 182.52H374.632L372.76 177.24L370.728 182.52ZM383.106 187.192C381.89 187.192 380.935 186.861 380.242 186.2C379.559 185.539 379.218 184.589 379.218 183.352C379.218 182.573 379.373 181.875 379.682 181.256C379.991 180.637 380.429 180.147 380.994 179.784C381.57 179.421 382.237 179.24 382.994 179.24C383.57 179.24 384.071 179.352 384.498 179.576C384.925 179.8 385.277 180.093 385.554 180.456C385.831 180.819 386.039 181.213 386.178 181.64C386.317 182.056 386.386 182.467 386.386 182.872C386.386 183.043 386.279 183.128 386.066 183.128H381.106C381.085 183.939 381.154 184.573 381.314 185.032C381.485 185.491 381.735 185.811 382.066 185.992C382.397 186.173 382.797 186.264 383.266 186.264C383.81 186.264 384.295 186.147 384.722 185.912C385.159 185.677 385.517 185.384 385.794 185.032C385.911 184.893 386.045 184.872 386.194 184.968C386.343 185.064 386.365 185.192 386.258 185.352C386.045 185.672 385.799 185.971 385.522 186.248C385.255 186.525 384.925 186.755 384.53 186.936C384.146 187.107 383.671 187.192 383.106 187.192ZM381.138 182.504H384.466C384.487 181.992 384.45 181.533 384.354 181.128C384.269 180.723 384.114 180.403 383.89 180.168C383.677 179.933 383.367 179.816 382.962 179.816C382.45 179.816 382.05 180.061 381.762 180.552C381.474 181.032 381.266 181.683 381.138 182.504ZM391.271 190.408C389.949 190.408 388.989 190.243 388.391 189.912C387.805 189.581 387.511 189.123 387.511 188.536C387.511 188.216 387.591 187.944 387.751 187.72C387.911 187.496 388.114 187.309 388.359 187.16C388.605 187.021 388.845 186.915 389.079 186.84C388.685 186.712 388.359 186.547 388.103 186.344C387.858 186.141 387.735 185.848 387.735 185.464C387.735 185.187 387.805 184.963 387.943 184.792C388.093 184.621 388.263 184.488 388.455 184.392C388.658 184.285 388.845 184.211 389.015 184.168C389.186 184.115 389.293 184.072 389.335 184.04C388.845 183.731 388.493 183.411 388.279 183.08C388.066 182.749 387.959 182.344 387.959 181.864C387.959 181.341 388.114 180.883 388.423 180.488C388.733 180.093 389.138 179.789 389.639 179.576C390.141 179.352 390.679 179.24 391.255 179.24C391.703 179.24 392.157 179.32 392.615 179.48C393.085 179.64 393.447 179.827 393.703 180.04C393.853 179.827 394.061 179.613 394.327 179.4C394.605 179.187 394.919 179.08 395.271 179.08C395.613 179.08 395.879 179.187 396.071 179.4C396.274 179.603 396.375 179.811 396.375 180.024C396.375 180.259 396.301 180.445 396.151 180.584C396.002 180.723 395.794 180.792 395.527 180.792C395.357 180.792 395.234 180.76 395.159 180.696C395.085 180.621 395.021 180.541 394.967 180.456C394.925 180.36 394.866 180.28 394.791 180.216C394.727 180.141 394.605 180.104 394.423 180.104C394.327 180.104 394.247 180.147 394.183 180.232C394.119 180.307 394.077 180.355 394.055 180.376C394.237 180.579 394.365 180.808 394.439 181.064C394.525 181.32 394.567 181.587 394.567 181.864C394.567 182.643 394.279 183.277 393.703 183.768C393.127 184.248 392.311 184.488 391.255 184.488C390.999 184.488 390.765 184.477 390.551 184.456C390.338 184.424 390.146 184.392 389.975 184.36C389.709 184.307 389.469 184.339 389.255 184.456C389.053 184.573 388.951 184.701 388.951 184.84C388.951 184.989 389.09 185.117 389.367 185.224C389.645 185.32 389.991 185.4 390.407 185.464C390.823 185.528 391.245 185.581 391.671 185.624C392.098 185.656 392.466 185.688 392.775 185.72C393.543 185.795 394.157 186.013 394.615 186.376C395.074 186.739 395.303 187.24 395.303 187.88C395.303 188.691 394.946 189.315 394.231 189.752C393.527 190.189 392.541 190.408 391.271 190.408ZM391.223 189.784C391.693 189.784 392.119 189.736 392.503 189.64C392.898 189.555 393.207 189.411 393.431 189.208C393.666 189.005 393.783 188.739 393.783 188.408C393.783 188.131 393.682 187.907 393.479 187.736C393.277 187.576 393.005 187.453 392.663 187.368C392.322 187.283 391.943 187.219 391.527 187.176C391.122 187.133 390.711 187.091 390.295 187.048C390.146 187.027 390.023 187.021 389.927 187.032C389.842 187.043 389.751 187.091 389.655 187.176C389.485 187.325 389.33 187.512 389.191 187.736C389.063 187.96 388.999 188.2 388.999 188.456C388.999 188.904 389.175 189.235 389.527 189.448C389.89 189.672 390.455 189.784 391.223 189.784ZM391.255 183.992C391.757 183.992 392.119 183.795 392.343 183.4C392.578 182.995 392.695 182.483 392.695 181.864C392.695 181.245 392.578 180.739 392.343 180.344C392.119 179.949 391.757 179.752 391.255 179.752C390.765 179.752 390.402 179.949 390.167 180.344C389.943 180.739 389.831 181.245 389.831 181.864C389.831 182.483 389.943 182.995 390.167 183.4C390.402 183.795 390.765 183.992 391.255 183.992ZM397.207 187C397.036 187 396.951 186.915 396.951 186.744C396.951 186.563 397.036 186.472 397.207 186.472C397.612 186.472 397.884 186.387 398.023 186.216C398.162 186.045 398.231 185.768 398.231 185.384V180.84C398.231 180.541 398.199 180.344 398.135 180.248C398.082 180.141 397.98 180.083 397.831 180.072C397.756 180.061 397.628 180.051 397.447 180.04C397.276 180.019 397.154 180.003 397.079 179.992C396.93 179.96 396.855 179.869 396.855 179.72C396.855 179.549 396.935 179.464 397.095 179.464C397.127 179.464 397.26 179.464 397.495 179.464C397.73 179.453 397.991 179.448 398.279 179.448C398.578 179.448 398.85 179.448 399.095 179.448C399.34 179.437 399.495 179.432 399.559 179.432C399.826 179.432 399.959 179.555 399.959 179.8V185.384C399.959 185.768 400.023 186.045 400.151 186.216C400.279 186.387 400.514 186.472 400.855 186.472C401.015 186.472 401.095 186.563 401.095 186.744C401.095 186.915 401.015 187 400.855 187C400.78 187 400.636 186.995 400.423 186.984C400.21 186.973 399.98 186.968 399.735 186.968C399.49 186.957 399.271 186.952 399.079 186.952C398.898 186.952 398.674 186.957 398.407 186.968C398.14 186.968 397.89 186.973 397.655 186.984C397.431 186.995 397.282 187 397.207 187ZM398.967 177.688C398.647 177.688 398.375 177.576 398.151 177.352C397.927 177.128 397.815 176.856 397.815 176.536C397.815 176.216 397.927 175.944 398.151 175.72C398.375 175.496 398.647 175.384 398.967 175.384C399.287 175.384 399.559 175.496 399.783 175.72C400.007 175.944 400.119 176.216 400.119 176.536C400.119 176.856 400.007 177.128 399.783 177.352C399.559 177.576 399.287 177.688 398.967 177.688ZM402.314 187C402.154 187 402.074 186.909 402.074 186.728C402.074 186.557 402.154 186.472 402.314 186.472C402.677 186.472 402.922 186.392 403.05 186.232C403.189 186.072 403.258 185.8 403.258 185.416V180.808C403.258 180.595 403.242 180.429 403.21 180.312C403.178 180.184 403.093 180.109 402.954 180.088C402.879 180.067 402.767 180.051 402.618 180.04C402.469 180.019 402.357 180.003 402.282 179.992C402.133 179.971 402.058 179.885 402.058 179.736C402.058 179.565 402.138 179.48 402.298 179.48C402.33 179.48 402.453 179.475 402.666 179.464C402.879 179.453 403.119 179.448 403.386 179.448C403.653 179.437 403.898 179.432 404.122 179.432C404.346 179.432 404.49 179.432 404.554 179.432C404.821 179.443 404.954 179.581 404.954 179.848V180.744C405.103 180.499 405.301 180.264 405.546 180.04C405.802 179.805 406.106 179.613 406.458 179.464C406.81 179.315 407.199 179.24 407.626 179.24C408.021 179.24 408.383 179.315 408.714 179.464C409.045 179.613 409.311 179.864 409.514 180.216C409.717 180.568 409.818 181.053 409.818 181.672V185.384C409.818 185.789 409.877 186.072 409.994 186.232C410.122 186.392 410.319 186.472 410.586 186.472C410.746 186.472 410.826 186.557 410.826 186.728C410.826 186.909 410.746 187 410.586 187C410.511 187 410.378 186.995 410.186 186.984C409.994 186.973 409.786 186.968 409.562 186.968C409.338 186.957 409.13 186.952 408.938 186.952C408.757 186.952 408.554 186.957 408.33 186.968C408.106 186.968 407.898 186.973 407.706 186.984C407.525 186.995 407.391 187 407.306 187C407.146 187 407.066 186.909 407.066 186.728C407.066 186.557 407.146 186.472 407.306 186.472C407.637 186.472 407.85 186.392 407.946 186.232C408.042 186.072 408.09 185.8 408.09 185.416V181.896C408.09 181.288 407.978 180.861 407.754 180.616C407.53 180.36 407.215 180.232 406.81 180.232C406.511 180.232 406.218 180.328 405.93 180.52C405.653 180.701 405.423 180.947 405.242 181.256C405.071 181.565 404.986 181.907 404.986 182.28V185.384C404.986 185.789 405.045 186.072 405.162 186.232C405.279 186.392 405.455 186.472 405.69 186.472C405.861 186.472 405.946 186.557 405.946 186.728C405.946 186.909 405.861 187 405.69 187C405.573 187 405.349 186.995 405.018 186.984C404.698 186.963 404.399 186.952 404.122 186.952C403.941 186.952 403.722 186.957 403.466 186.968C403.21 186.968 402.975 186.973 402.762 186.984C402.549 186.995 402.399 187 402.314 187ZM414.353 187.192C413.659 187.192 413.083 187.032 412.625 186.712C412.177 186.392 411.953 185.859 411.953 185.112C411.953 184.483 412.145 183.965 412.529 183.56C412.923 183.144 413.473 182.84 414.177 182.648C414.881 182.445 415.702 182.349 416.641 182.36V181.736C416.641 181.16 416.539 180.707 416.337 180.376C416.134 180.035 415.809 179.864 415.361 179.864C414.945 179.864 414.63 179.944 414.417 180.104C414.203 180.253 414.15 180.451 414.257 180.696C414.427 181.059 414.422 181.384 414.241 181.672C414.059 181.949 413.75 182.088 413.312 182.088C413.046 182.088 412.822 182.003 412.641 181.832C412.459 181.651 412.368 181.4 412.368 181.08C412.368 180.76 412.502 180.461 412.769 180.184C413.035 179.907 413.398 179.683 413.857 179.512C414.326 179.331 414.854 179.24 415.441 179.24C416.411 179.24 417.142 179.453 417.633 179.88C418.123 180.307 418.369 180.893 418.369 181.64V185.032C418.369 185.459 418.411 185.736 418.497 185.864C418.593 185.981 418.71 186.04 418.849 186.04C418.955 186.04 419.046 186.024 419.121 185.992C419.206 185.949 419.27 185.907 419.312 185.864C419.43 185.747 419.547 185.752 419.665 185.88C419.718 185.933 419.739 185.992 419.729 186.056C419.718 186.12 419.691 186.184 419.649 186.248C419.499 186.493 419.313 186.701 419.089 186.872C418.875 187.032 418.614 187.112 418.305 187.112C417.91 187.112 417.574 187.011 417.297 186.808C417.03 186.605 416.843 186.291 416.737 185.864C416.545 186.216 416.267 186.525 415.905 186.792C415.553 187.059 415.035 187.192 414.353 187.192ZM415.153 186.232C415.462 186.232 415.729 186.147 415.953 185.976C416.177 185.795 416.347 185.581 416.465 185.336C416.582 185.091 416.641 184.856 416.641 184.632V182.92C415.798 182.899 415.121 183.032 414.609 183.32C414.097 183.608 413.841 184.115 413.841 184.84C413.841 185.256 413.921 185.565 414.081 185.768C414.241 185.96 414.422 186.088 414.625 186.152C414.838 186.205 415.014 186.232 415.153 186.232Z" fill="black"/>
<path d="M0.496 22C0.357333 22 0.288 21.9307 0.288 21.792C0.288 21.6213 0.357333 21.536 0.496 21.536C0.869333 21.536 1.16267 21.472 1.376 21.344C1.58933 21.2053 1.78133 20.9493 1.952 20.576C2.03733 20.4053 2.16 20.1173 2.32 19.712C2.49067 19.3067 2.68267 18.8213 2.896 18.256C3.12 17.6907 3.35467 17.088 3.6 16.448C3.84533 15.808 4.09067 15.168 4.336 14.528C4.58133 13.888 4.80533 13.296 5.008 12.752C5.22133 12.1973 5.39733 11.7227 5.536 11.328C5.68533 10.9333 5.78667 10.6667 5.84 10.528C5.89333 10.3893 5.952 10.2987 6.016 10.256C6.09067 10.2133 6.21333 10.192 6.384 10.192C6.55467 10.192 6.67733 10.2133 6.752 10.256C6.82667 10.2987 6.89067 10.3893 6.944 10.528C7.02933 10.7413 7.16267 11.088 7.344 11.568C7.536 12.048 7.75467 12.6027 8 13.232C8.24533 13.8613 8.50133 14.5227 8.768 15.216C9.03467 15.8987 9.29067 16.5653 9.536 17.216C9.792 17.8667 10.0213 18.4587 10.224 18.992C10.4267 19.5147 10.5867 19.92 10.704 20.208C10.896 20.6987 11.0987 21.0453 11.312 21.248C11.536 21.44 11.7493 21.536 11.952 21.536C12.0907 21.536 12.16 21.6213 12.16 21.792C12.16 21.9307 12.0907 22 11.952 22C11.8453 22 11.6267 22 11.296 22C10.9653 21.9893 10.5227 21.984 9.968 21.984C9.50933 21.984 9.072 21.9893 8.656 22C8.24 22 7.97867 22 7.872 22C7.73333 22 7.664 21.9307 7.664 21.792C7.664 21.6213 7.73333 21.536 7.872 21.536C8.21333 21.536 8.448 21.4827 8.576 21.376C8.71467 21.2587 8.784 21.1253 8.784 20.976C8.784 20.816 8.75733 20.6827 8.704 20.576C8.69333 20.5547 8.656 20.448 8.592 20.256C8.528 20.064 8.448 19.8347 8.352 19.568C8.26667 19.2907 8.176 19.0187 8.08 18.752C7.984 18.4747 7.904 18.24 7.84 18.048H3.52C3.456 18.2613 3.37067 18.5333 3.264 18.864C3.168 19.184 3.07733 19.4987 2.992 19.808C2.91733 20.1173 2.88 20.368 2.88 20.56C2.88 20.9547 2.976 21.216 3.168 21.344C3.37067 21.472 3.648 21.536 4 21.536C4.13867 21.536 4.208 21.6213 4.208 21.792C4.208 21.9307 4.13867 22 4 22C3.89333 22 3.69067 22 3.392 22C3.104 21.9893 2.72533 21.984 2.256 21.984C1.84 21.984 1.472 21.9893 1.152 22C0.832 22 0.613333 22 0.496 22ZM3.728 17.52H7.632L5.76 12.24L3.728 17.52ZM14.9899 22.192C14.5312 22.192 14.1312 22.0853 13.7899 21.872C13.4485 21.6587 13.2779 21.2587 13.2779 20.672V15.056H12.1579C11.9872 15.056 11.9019 14.9707 11.9019 14.8V14.752C11.9019 14.6773 11.9232 14.624 11.9659 14.592C12.0192 14.5493 12.0832 14.5173 12.1579 14.496C12.7765 14.2827 13.2512 13.9627 13.5819 13.536C13.9232 13.0987 14.1365 12.4907 14.2219 11.712C14.2219 11.5413 14.3072 11.456 14.4779 11.456H14.7499C14.8139 11.456 14.8725 11.4827 14.9259 11.536C14.9792 11.5787 15.0059 11.6373 15.0059 11.712V14.432H16.9579C17.1285 14.432 17.2139 14.512 17.2139 14.672V14.8C17.2139 14.9707 17.1285 15.056 16.9579 15.056H15.0059V20.112C15.0059 20.6987 15.3099 20.992 15.9179 20.992C16.2059 20.992 16.4619 20.9067 16.6859 20.736C16.9205 20.5653 17.0965 20.368 17.2139 20.144C17.2992 19.984 17.4325 19.9573 17.6139 20.064C17.6885 20.1067 17.7259 20.16 17.7259 20.224C17.7259 20.288 17.7099 20.3627 17.6779 20.448C17.4965 20.9067 17.1819 21.312 16.7339 21.664C16.2965 22.016 15.7152 22.192 14.9899 22.192ZM18.832 22C18.6613 22 18.576 21.9093 18.576 21.728C18.576 21.5573 18.6613 21.472 18.832 21.472C19.2373 21.472 19.5093 21.392 19.648 21.232C19.7867 21.072 19.856 20.8 19.856 20.416V11.808C19.856 11.5093 19.824 11.3173 19.76 11.232C19.7067 11.136 19.6053 11.072 19.456 11.04C19.3813 11.0187 19.2533 11.0027 19.072 10.992C18.9013 10.9707 18.7787 10.9547 18.704 10.944C18.5547 10.9227 18.48 10.8373 18.48 10.688C18.48 10.528 18.56 10.4373 18.72 10.416C18.752 10.416 18.8853 10.416 19.12 10.416C19.3547 10.4053 19.616 10.4 19.904 10.4C20.2027 10.4 20.4747 10.4 20.72 10.4C20.9653 10.3893 21.12 10.384 21.184 10.384C21.4507 10.384 21.584 10.5227 21.584 10.8V15.728C21.808 15.344 22.1547 15.0027 22.624 14.704C23.104 14.3947 23.6533 14.24 24.272 14.24C24.6773 14.24 25.04 14.32 25.36 14.48C25.68 14.64 25.9307 14.9173 26.112 15.312C26.304 15.696 26.4 16.24 26.4 16.944V20.384C26.4 20.7787 26.4533 21.0613 26.56 21.232C26.6773 21.392 26.8693 21.472 27.136 21.472C27.3067 21.472 27.392 21.5573 27.392 21.728C27.392 21.9093 27.3067 22 27.136 22C27.0613 22 26.928 21.9947 26.736 21.984C26.544 21.9733 26.336 21.968 26.112 21.968C25.888 21.9573 25.68 21.952 25.488 21.952C25.3067 21.952 25.0987 21.9573 24.864 21.968C24.6293 21.968 24.416 21.9733 24.224 21.984C24.032 21.9947 23.8933 22 23.808 22C23.648 22 23.568 21.9093 23.568 21.728C23.568 21.5573 23.648 21.472 23.808 21.472C24.192 21.472 24.432 21.392 24.528 21.232C24.624 21.072 24.672 20.8 24.672 20.416V17.072C24.672 16.4 24.5653 15.9147 24.352 15.616C24.1493 15.3173 23.8293 15.168 23.392 15.168C23.104 15.168 22.8213 15.2587 22.544 15.44C22.2667 15.6213 22.0373 15.8613 21.856 16.16C21.6747 16.4587 21.584 16.7947 21.584 17.168V20.384C21.584 20.7787 21.648 21.0613 21.776 21.232C21.904 21.392 22.112 21.472 22.4 21.472C22.56 21.472 22.64 21.5573 22.64 21.728C22.64 21.9093 22.56 22 22.4 22C22.3253 22 22.1867 21.9947 21.984 21.984C21.7813 21.9733 21.5627 21.968 21.328 21.968C21.104 21.9573 20.896 21.952 20.704 21.952C20.5227 21.952 20.2987 21.9573 20.032 21.968C19.7653 21.968 19.5147 21.9733 19.28 21.984C19.056 21.9947 18.9067 22 18.832 22ZM32.2468 22.192C31.0308 22.192 30.0761 21.8613 29.3828 21.2C28.7001 20.5387 28.3588 19.5893 28.3588 18.352C28.3588 17.5733 28.5134 16.8747 28.8228 16.256C29.1321 15.6373 29.5694 15.1467 30.1348 14.784C30.7108 14.4213 31.3774 14.24 32.1348 14.24C32.7108 14.24 33.2121 14.352 33.6388 14.576C34.0654 14.8 34.4174 15.0933 34.6948 15.456C34.9721 15.8187 35.1801 16.2133 35.3188 16.64C35.4574 17.056 35.5268 17.4667 35.5268 17.872C35.5268 18.0427 35.4201 18.128 35.2068 18.128H30.2468C30.2254 18.9387 30.2948 19.5733 30.4548 20.032C30.6254 20.4907 30.8761 20.8107 31.2068 20.992C31.5374 21.1733 31.9374 21.264 32.4068 21.264C32.9508 21.264 33.4361 21.1467 33.8628 20.912C34.3001 20.6773 34.6574 20.384 34.9348 20.032C35.0521 19.8933 35.1854 19.872 35.3348 19.968C35.4841 20.064 35.5054 20.192 35.3988 20.352C35.1854 20.672 34.9401 20.9707 34.6628 21.248C34.3961 21.5253 34.0654 21.7547 33.6708 21.936C33.2868 22.1067 32.8121 22.192 32.2468 22.192ZM30.2788 17.504H33.6068C33.6281 16.992 33.5908 16.5333 33.4948 16.128C33.4094 15.7227 33.2548 15.4027 33.0308 15.168C32.8174 14.9333 32.5081 14.816 32.1028 14.816C31.5908 14.816 31.1908 15.0613 30.9028 15.552C30.6148 16.032 30.4068 16.6827 30.2788 17.504ZM36.9079 22C36.7479 22 36.6679 21.9093 36.6679 21.728C36.6679 21.5573 36.7479 21.472 36.9079 21.472C37.2705 21.472 37.5159 21.392 37.6439 21.232C37.7825 21.072 37.8519 20.8 37.8519 20.416V15.808C37.8519 15.5947 37.8359 15.4293 37.8039 15.312C37.7719 15.184 37.6865 15.1093 37.5479 15.088C37.4732 15.0667 37.3612 15.0507 37.2119 15.04C37.0625 15.0187 36.9505 15.0027 36.8759 14.992C36.7265 14.9707 36.6519 14.8853 36.6519 14.736C36.6519 14.5653 36.7319 14.48 36.8919 14.48C36.9239 14.48 37.0465 14.4747 37.2599 14.464C37.4732 14.4533 37.7132 14.448 37.9799 14.448C38.2465 14.4373 38.4919 14.432 38.7159 14.432C38.9399 14.432 39.0839 14.432 39.1479 14.432C39.4145 14.4427 39.5479 14.5813 39.5479 14.848V15.744C39.6972 15.4987 39.8945 15.264 40.1399 15.04C40.3959 14.8053 40.6999 14.6133 41.0519 14.464C41.4039 14.3147 41.7932 14.24 42.2199 14.24C42.6145 14.24 42.9772 14.3147 43.3079 14.464C43.6385 14.6133 43.9052 14.864 44.1079 15.216C44.3105 15.568 44.4119 16.0533 44.4119 16.672V20.384C44.4119 20.7893 44.4705 21.072 44.5879 21.232C44.7159 21.392 44.9132 21.472 45.1799 21.472C45.3399 21.472 45.4199 21.5573 45.4199 21.728C45.4199 21.9093 45.3399 22 45.1799 22C45.1052 22 44.9719 21.9947 44.7799 21.984C44.5879 21.9733 44.3799 21.968 44.1559 21.968C43.9319 21.9573 43.7239 21.952 43.5319 21.952C43.3505 21.952 43.1479 21.9573 42.9239 21.968C42.6999 21.968 42.4919 21.9733 42.2999 21.984C42.1185 21.9947 41.9852 22 41.8999 22C41.7399 22 41.6599 21.9093 41.6599 21.728C41.6599 21.5573 41.7399 21.472 41.8999 21.472C42.2305 21.472 42.4439 21.392 42.5399 21.232C42.6359 21.072 42.6839 20.8 42.6839 20.416V16.896C42.6839 16.288 42.5719 15.8613 42.3479 15.616C42.1239 15.36 41.8092 15.232 41.4039 15.232C41.1052 15.232 40.8119 15.328 40.5239 15.52C40.2465 15.7013 40.0172 15.9467 39.8359 16.256C39.6652 16.5653 39.5799 16.9067 39.5799 17.28V20.384C39.5799 20.7893 39.6385 21.072 39.7559 21.232C39.8732 21.392 40.0492 21.472 40.2839 21.472C40.4545 21.472 40.5399 21.5573 40.5399 21.728C40.5399 21.9093 40.4545 22 40.2839 22C40.1665 22 39.9425 21.9947 39.6119 21.984C39.2919 21.9627 38.9932 21.952 38.7159 21.952C38.5345 21.952 38.3159 21.9573 38.0599 21.968C37.8039 21.968 37.5692 21.9733 37.3559 21.984C37.1425 21.9947 36.9932 22 36.9079 22ZM50.3063 22.192C49.9863 22.192 49.6609 22.1493 49.3303 22.064C48.9996 21.9893 48.6956 21.904 48.4183 21.808C48.1516 21.7013 47.9489 21.616 47.8103 21.552C47.6609 21.6267 47.5436 21.7013 47.4583 21.776C47.3729 21.8507 47.2876 21.9307 47.2023 22.016C47.0956 22.1227 46.9836 22.1547 46.8663 22.112C46.7596 22.0693 46.7063 21.9733 46.7063 21.824V19.6C46.7063 19.4613 46.7649 19.3813 46.8823 19.36C47.0103 19.3387 47.1063 19.3813 47.1703 19.488C47.9703 20.8 49.0263 21.456 50.3383 21.456C50.8503 21.456 51.2823 21.3493 51.6343 21.136C51.9969 20.9227 52.1783 20.608 52.1783 20.192C52.1783 19.9147 52.0503 19.7013 51.7943 19.552C51.5383 19.4027 51.2076 19.2853 50.8023 19.2C50.3969 19.104 49.9703 19.0027 49.5223 18.896C49.0743 18.7893 48.6476 18.6453 48.2423 18.464C47.8369 18.2827 47.5063 18.032 47.2503 17.712C46.9943 17.3813 46.8663 16.944 46.8663 16.4C46.8663 16.0373 46.9623 15.6907 47.1543 15.36C47.3569 15.0293 47.6609 14.7627 48.0663 14.56C48.4716 14.3467 48.9836 14.24 49.6023 14.24C50.0716 14.24 50.5303 14.3093 50.9783 14.448C51.4263 14.576 51.7676 14.6987 52.0023 14.816C52.0663 14.7627 52.1463 14.6933 52.2423 14.608C52.3489 14.5227 52.4449 14.448 52.5303 14.384C52.6263 14.32 52.7116 14.2987 52.7863 14.32C52.8716 14.3307 52.9143 14.4053 52.9143 14.544V16.544C52.9143 16.6827 52.8503 16.768 52.7223 16.8C52.5943 16.8213 52.5036 16.7787 52.4503 16.672C52.1836 16.0427 51.8049 15.5893 51.3143 15.312C50.8236 15.0347 50.3329 14.896 49.8423 14.896C49.2876 14.896 48.8663 15.0187 48.5783 15.264C48.2903 15.4987 48.1463 15.7707 48.1463 16.08C48.1463 16.336 48.2743 16.5333 48.5303 16.672C48.7863 16.8 49.1116 16.9067 49.5063 16.992C49.9116 17.0667 50.3383 17.152 50.7863 17.248C51.2343 17.3333 51.6556 17.4667 52.0503 17.648C52.4556 17.8293 52.7863 18.0907 53.0423 18.432C53.2983 18.7627 53.4263 19.2107 53.4263 19.776C53.4263 20.224 53.2983 20.6347 53.0423 21.008C52.7863 21.3707 52.4236 21.6587 51.9543 21.872C51.4849 22.0853 50.9356 22.192 50.3063 22.192Z" fill="black"/>
<g filter="url(#filter1_i_35_26)">
<path fill-rule="evenodd" clip-rule="evenodd" d="M62 9.26501C62 5.39501 65.13 2.26501 69 2.26501C72.87 2.26501 76 5.39501 76 9.26501C76 13.435 71.58 19.185 69.77 21.375C69.37 21.855 68.64 21.855 68.24 21.375C66.42 19.185 62 13.435 62 9.26501ZM66.5 9.26501C66.5 10.645 67.62 11.765 69 11.765C70.38 11.765 71.5 10.645 71.5 9.26501C71.5 7.88501 70.38 6.76501 69 6.76501C67.62 6.76501 66.5 7.88501 66.5 9.26501Z" fill="black"/>
</g>
<path d="M140.8 302C140.64 302 140.56 301.925 140.56 301.776C140.56 301.616 140.64 301.536 140.8 301.536C141.248 301.536 141.579 301.509 141.792 301.456C142.005 301.403 142.144 301.307 142.208 301.168C142.283 301.019 142.32 300.816 142.32 300.56V291.792C142.32 291.557 142.288 291.371 142.224 291.232C142.171 291.093 142.032 290.997 141.808 290.944C141.595 290.88 141.248 290.848 140.768 290.848C140.715 290.848 140.667 290.827 140.624 290.784C140.581 290.731 140.56 290.677 140.56 290.624C140.56 290.464 140.629 290.384 140.768 290.384C140.864 290.384 141.131 290.395 141.568 290.416C142.005 290.427 142.581 290.432 143.296 290.432C144.181 290.432 144.939 290.427 145.568 290.416C146.208 290.395 146.72 290.384 147.104 290.384C148.32 290.384 149.264 290.661 149.936 291.216C150.608 291.771 150.944 292.555 150.944 293.568C150.944 294.56 150.661 295.333 150.096 295.888C149.541 296.432 148.624 296.704 147.344 296.704H144.272V300.56C144.272 300.944 144.389 301.205 144.624 301.344C144.859 301.472 145.328 301.536 146.032 301.536C146.171 301.536 146.24 301.616 146.24 301.776C146.24 301.925 146.171 302 146.032 302C145.925 302 145.627 301.995 145.136 301.984C144.656 301.963 144.043 301.952 143.296 301.952C142.581 301.952 142.011 301.963 141.584 301.984C141.168 301.995 140.907 302 140.8 302ZM144.272 296.176H146.56C147.253 296.176 147.792 295.936 148.176 295.456C148.56 294.976 148.752 294.347 148.752 293.568C148.752 293.077 148.677 292.629 148.528 292.224C148.389 291.819 148.139 291.493 147.776 291.248C147.424 291.003 146.928 290.88 146.288 290.88H144.272V296.176ZM154.26 302.192C153.492 302.192 152.825 302.021 152.26 301.68C151.694 301.328 151.257 300.853 150.948 300.256C150.638 299.659 150.484 298.976 150.484 298.208C150.484 297.44 150.638 296.757 150.948 296.16C151.257 295.563 151.694 295.093 152.26 294.752C152.825 294.411 153.492 294.24 154.26 294.24C155.028 294.24 155.689 294.411 156.244 294.752C156.809 295.093 157.246 295.563 157.556 296.16C157.865 296.757 158.02 297.44 158.02 298.208C158.02 298.976 157.865 299.659 157.556 300.256C157.246 300.853 156.809 301.328 156.244 301.68C155.689 302.021 155.028 302.192 154.26 302.192ZM154.26 301.648C154.921 301.648 155.396 301.333 155.684 300.704C155.982 300.064 156.132 299.232 156.132 298.208C156.132 297.195 155.982 296.373 155.684 295.744C155.396 295.104 154.921 294.784 154.26 294.784C153.598 294.784 153.118 295.104 152.82 295.744C152.521 296.373 152.372 297.195 152.372 298.208C152.372 299.232 152.521 300.064 152.82 300.704C153.118 301.333 153.598 301.648 154.26 301.648ZM159.316 302C159.156 302 159.076 301.909 159.076 301.728C159.076 301.557 159.156 301.472 159.316 301.472C159.753 301.472 160.079 301.392 160.292 301.232C160.505 301.072 160.612 300.8 160.612 300.416V295.84C160.612 295.605 160.585 295.429 160.532 295.312C160.489 295.195 160.393 295.125 160.244 295.104C160.191 295.093 160.089 295.083 159.94 295.072C159.791 295.051 159.641 295.035 159.492 295.024C159.353 295.013 159.257 295.003 159.204 294.992C159.055 294.96 158.98 294.875 158.98 294.736C158.98 294.555 159.06 294.464 159.22 294.464C159.252 294.464 159.391 294.464 159.636 294.464C159.892 294.453 160.175 294.448 160.484 294.448C160.804 294.448 161.092 294.448 161.348 294.448C161.615 294.437 161.78 294.432 161.844 294.432C162.111 294.432 162.244 294.571 162.244 294.848V296C162.393 295.744 162.591 295.483 162.836 295.216C163.081 294.939 163.364 294.709 163.684 294.528C164.015 294.336 164.377 294.24 164.772 294.24C165.391 294.24 165.849 294.368 166.148 294.624C166.447 294.88 166.596 295.211 166.596 295.616C166.596 295.851 166.505 296.091 166.324 296.336C166.153 296.571 165.892 296.688 165.54 296.688C165.145 296.688 164.873 296.587 164.724 296.384C164.585 296.171 164.516 295.963 164.516 295.76C164.516 295.547 164.484 295.397 164.42 295.312C164.356 295.216 164.244 295.168 164.084 295.168C163.807 295.168 163.529 295.301 163.252 295.568C162.985 295.835 162.761 296.181 162.58 296.608C162.409 297.024 162.324 297.477 162.324 297.968V300.384C162.324 300.789 162.447 301.072 162.692 301.232C162.948 301.392 163.268 301.472 163.652 301.472C163.823 301.472 163.908 301.557 163.908 301.728C163.908 301.909 163.823 302 163.652 302C163.545 302 163.295 301.995 162.9 301.984C162.516 301.963 162.036 301.952 161.46 301.952C160.969 301.952 160.516 301.963 160.1 301.984C159.695 301.995 159.433 302 159.316 302ZM171.338 302.192C170.57 302.192 169.903 302.021 169.338 301.68C168.773 301.328 168.335 300.853 168.026 300.256C167.717 299.659 167.562 298.976 167.562 298.208C167.562 297.44 167.717 296.757 168.026 296.16C168.335 295.563 168.773 295.093 169.338 294.752C169.903 294.411 170.57 294.24 171.338 294.24C172.106 294.24 172.767 294.411 173.322 294.752C173.887 295.093 174.325 295.563 174.634 296.16C174.943 296.757 175.098 297.44 175.098 298.208C175.098 298.976 174.943 299.659 174.634 300.256C174.325 300.853 173.887 301.328 173.322 301.68C172.767 302.021 172.106 302.192 171.338 302.192ZM171.338 301.648C171.999 301.648 172.474 301.333 172.762 300.704C173.061 300.064 173.21 299.232 173.21 298.208C173.21 297.195 173.061 296.373 172.762 295.744C172.474 295.104 171.999 294.784 171.338 294.784C170.677 294.784 170.197 295.104 169.898 295.744C169.599 296.373 169.45 297.195 169.45 298.208C169.45 299.232 169.599 300.064 169.898 300.704C170.197 301.333 170.677 301.648 171.338 301.648ZM179.978 302.192C179.658 302.192 179.333 302.149 179.002 302.064C178.671 301.989 178.367 301.904 178.09 301.808C177.823 301.701 177.621 301.616 177.482 301.552C177.333 301.627 177.215 301.701 177.13 301.776C177.045 301.851 176.959 301.931 176.874 302.016C176.767 302.123 176.655 302.155 176.538 302.112C176.431 302.069 176.378 301.973 176.378 301.824V299.6C176.378 299.461 176.437 299.381 176.554 299.36C176.682 299.339 176.778 299.381 176.842 299.488C177.642 300.8 178.698 301.456 180.01 301.456C180.522 301.456 180.954 301.349 181.306 301.136C181.669 300.923 181.85 300.608 181.85 300.192C181.85 299.915 181.722 299.701 181.466 299.552C181.21 299.403 180.879 299.285 180.474 299.2C180.069 299.104 179.642 299.003 179.194 298.896C178.746 298.789 178.319 298.645 177.914 298.464C177.509 298.283 177.178 298.032 176.922 297.712C176.666 297.381 176.538 296.944 176.538 296.4C176.538 296.037 176.634 295.691 176.826 295.36C177.029 295.029 177.333 294.763 177.738 294.56C178.143 294.347 178.655 294.24 179.274 294.24C179.743 294.24 180.202 294.309 180.65 294.448C181.098 294.576 181.439 294.699 181.674 294.816C181.738 294.763 181.818 294.693 181.914 294.608C182.021 294.523 182.117 294.448 182.202 294.384C182.298 294.32 182.383 294.299 182.458 294.32C182.543 294.331 182.586 294.405 182.586 294.544V296.544C182.586 296.683 182.522 296.768 182.394 296.8C182.266 296.821 182.175 296.779 182.122 296.672C181.855 296.043 181.477 295.589 180.986 295.312C180.495 295.035 180.005 294.896 179.514 294.896C178.959 294.896 178.538 295.019 178.25 295.264C177.962 295.499 177.818 295.771 177.818 296.08C177.818 296.336 177.946 296.533 178.202 296.672C178.458 296.8 178.783 296.907 179.178 296.992C179.583 297.067 180.01 297.152 180.458 297.248C180.906 297.333 181.327 297.467 181.722 297.648C182.127 297.829 182.458 298.091 182.714 298.432C182.97 298.763 183.098 299.211 183.098 299.776C183.098 300.224 182.97 300.635 182.714 301.008C182.458 301.371 182.095 301.659 181.626 301.872C181.157 302.085 180.607 302.192 179.978 302.192Z" fill="black"/>
<g filter="url(#filter2_i_35_26)">
<path fill-rule="evenodd" clip-rule="evenodd" d="M197 289.265C197 285.395 200.13 282.265 204 282.265C207.87 282.265 211 285.395 211 289.265C211 293.435 206.58 299.185 204.77 301.375C204.37 301.855 203.64 301.855 203.24 301.375C201.42 299.185 197 293.435 197 289.265ZM201.5 289.265C201.5 290.645 202.62 291.765 204 291.765C205.38 291.765 206.5 290.645 206.5 289.265C206.5 287.885 205.38 286.765 204 286.765C202.62 286.765 201.5 287.885 201.5 289.265Z" fill="black"/>
</g>
<path d="M473.576 446C473.437 446 473.368 445.915 473.368 445.744C473.368 445.605 473.437 445.536 473.576 445.536C474.035 445.536 474.349 445.467 474.52 445.328C474.691 445.179 474.776 444.923 474.776 444.56V435.792C474.776 435.483 474.707 435.248 474.568 435.088C474.429 434.917 474.131 434.832 473.672 434.832C473.523 434.832 473.448 434.757 473.448 434.608C473.448 434.491 473.464 434.427 473.496 434.416C473.539 434.395 473.597 434.384 473.672 434.384C473.715 434.384 473.816 434.389 473.976 434.4C474.147 434.4 474.339 434.4 474.552 434.4C474.776 434.4 474.989 434.405 475.192 434.416C475.405 434.416 475.576 434.416 475.704 434.416C475.832 434.416 476.003 434.416 476.216 434.416C476.44 434.405 476.664 434.4 476.888 434.4C477.123 434.4 477.325 434.4 477.496 434.4C477.677 434.389 477.789 434.384 477.832 434.384C477.981 434.384 478.056 434.448 478.056 434.576C478.056 434.747 477.981 434.832 477.832 434.832C477.373 434.832 477.075 434.917 476.936 435.088C476.797 435.248 476.728 435.483 476.728 435.792V440.064H481.352V435.792C481.352 435.483 481.277 435.248 481.128 435.088C480.989 434.917 480.691 434.832 480.232 434.832C480.093 434.832 480.024 434.747 480.024 434.576C480.024 434.448 480.093 434.384 480.232 434.384C480.275 434.384 480.376 434.389 480.536 434.4C480.707 434.4 480.904 434.4 481.128 434.4C481.352 434.4 481.565 434.405 481.768 434.416C481.981 434.416 482.152 434.416 482.28 434.416C482.408 434.416 482.579 434.416 482.792 434.416C483.016 434.405 483.24 434.4 483.464 434.4C483.699 434.4 483.901 434.4 484.072 434.4C484.253 434.389 484.365 434.384 484.408 434.384C484.547 434.384 484.616 434.459 484.616 434.608C484.616 434.757 484.547 434.832 484.408 434.832C483.949 434.832 483.645 434.917 483.496 435.088C483.347 435.248 483.272 435.483 483.272 435.792V444.56C483.272 444.912 483.357 445.163 483.528 445.312C483.699 445.461 484.013 445.536 484.472 445.536C484.547 445.536 484.6 445.557 484.632 445.6C484.664 445.643 484.68 445.691 484.68 445.744C484.68 445.915 484.611 446 484.472 446C484.419 446 484.296 446 484.104 446C483.923 445.989 483.715 445.984 483.48 445.984C483.245 445.973 483.016 445.968 482.792 445.968C482.579 445.957 482.408 445.952 482.28 445.952C482.152 445.952 481.981 445.957 481.768 445.968C481.565 445.968 481.347 445.973 481.112 445.984C480.888 445.984 480.685 445.989 480.504 446C480.323 446 480.205 446 480.152 446C480.003 446 479.928 445.915 479.928 445.744C479.928 445.605 480.003 445.536 480.152 445.536C480.621 445.536 480.936 445.461 481.096 445.312C481.267 445.163 481.352 444.912 481.352 444.56V440.624H476.728V444.56C476.728 444.901 476.803 445.152 476.952 445.312C477.112 445.461 477.432 445.536 477.912 445.536C477.976 445.536 478.029 445.557 478.072 445.6C478.115 445.643 478.136 445.691 478.136 445.744C478.136 445.915 478.061 446 477.912 446C477.859 446 477.741 446 477.56 446C477.379 445.989 477.165 445.984 476.92 445.984C476.685 445.973 476.456 445.968 476.232 445.968C476.008 445.957 475.832 445.952 475.704 445.952C475.576 445.952 475.405 445.957 475.192 445.968C474.979 445.968 474.755 445.973 474.52 445.984C474.296 445.984 474.093 445.989 473.912 446C473.741 446 473.629 446 473.576 446ZM486.083 449.344C485.624 449.344 485.256 449.237 484.979 449.024C484.701 448.811 484.562 448.523 484.562 448.16C484.562 447.872 484.653 447.627 484.835 447.424C485.027 447.221 485.277 447.12 485.587 447.12C485.864 447.12 486.067 447.184 486.195 447.312C486.333 447.44 486.429 447.584 486.483 447.744C486.547 447.915 486.605 448.064 486.659 448.192C486.723 448.32 486.808 448.384 486.914 448.384C487.107 448.384 487.293 448.277 487.475 448.064C487.656 447.851 487.821 447.595 487.971 447.296C488.131 446.997 488.259 446.72 488.355 446.464C488.461 446.219 488.531 446.064 488.562 446C488.392 445.595 488.195 445.141 487.971 444.64C487.757 444.128 487.539 443.616 487.315 443.104C487.091 442.581 486.883 442.096 486.691 441.648C486.499 441.189 486.333 440.805 486.195 440.496C486.067 440.176 485.981 439.973 485.939 439.888C485.811 439.579 485.677 439.349 485.539 439.2C485.4 439.04 485.224 438.96 485.011 438.96C484.851 438.96 484.771 438.869 484.771 438.688C484.771 438.517 484.851 438.432 485.011 438.432C485.128 438.432 485.341 438.443 485.651 438.464C485.96 438.475 486.253 438.48 486.531 438.48C486.723 438.48 486.931 438.475 487.155 438.464C487.379 438.453 487.587 438.448 487.779 438.448C487.981 438.437 488.12 438.432 488.195 438.432C488.355 438.432 488.435 438.517 488.435 438.688C488.435 438.869 488.355 438.96 488.195 438.96C487.939 438.96 487.768 439.019 487.683 439.136C487.597 439.253 487.581 439.387 487.635 439.536C487.667 439.611 487.741 439.803 487.859 440.112C487.987 440.411 488.131 440.763 488.291 441.168C488.461 441.563 488.627 441.963 488.786 442.368C488.957 442.763 489.101 443.104 489.219 443.392C489.347 443.68 489.421 443.851 489.443 443.904C489.464 443.861 489.517 443.728 489.603 443.504C489.688 443.28 489.789 443.013 489.907 442.704C490.035 442.384 490.163 442.059 490.291 441.728C490.419 441.397 490.531 441.104 490.627 440.848C490.723 440.592 490.787 440.416 490.819 440.32C490.957 439.883 490.952 439.547 490.803 439.312C490.664 439.077 490.392 438.96 489.987 438.96C489.827 438.96 489.747 438.869 489.747 438.688C489.747 438.517 489.827 438.432 489.987 438.432C490.104 438.432 490.28 438.443 490.515 438.464C490.749 438.475 491.005 438.48 491.283 438.48C491.56 438.48 491.843 438.475 492.131 438.464C492.429 438.443 492.637 438.432 492.755 438.432C492.915 438.432 492.995 438.517 492.995 438.688C492.995 438.869 492.915 438.96 492.755 438.96C492.499 438.96 492.248 439.067 492.003 439.28C491.757 439.483 491.539 439.84 491.347 440.352C491.315 440.437 491.235 440.645 491.107 440.976C490.979 441.307 490.824 441.696 490.643 442.144C490.472 442.592 490.296 443.045 490.115 443.504C489.944 443.963 489.789 444.368 489.651 444.72C489.512 445.072 489.416 445.307 489.363 445.424C489.053 446.16 488.744 446.821 488.435 447.408C488.136 448.005 487.8 448.475 487.427 448.816C487.053 449.168 486.605 449.344 486.083 449.344ZM496.812 446.192C496.225 446.192 495.676 446.064 495.164 445.808C494.663 445.552 494.252 445.147 493.932 444.592C493.623 444.027 493.468 443.285 493.468 442.368C493.468 441.429 493.628 440.656 493.948 440.048C494.279 439.44 494.695 438.987 495.196 438.688C495.708 438.389 496.231 438.24 496.764 438.24C497.191 438.24 497.548 438.304 497.836 438.432C498.135 438.549 498.385 438.693 498.588 438.864C498.791 439.024 498.951 439.179 499.068 439.328V435.808C499.068 435.563 499.031 435.387 498.956 435.28C498.881 435.163 498.743 435.083 498.54 435.04C498.465 435.019 498.359 435.003 498.22 434.992C498.081 434.971 497.975 434.955 497.9 434.944C497.751 434.933 497.676 434.848 497.676 434.688C497.676 434.507 497.756 434.416 497.916 434.416C497.948 434.416 498.076 434.416 498.3 434.416C498.535 434.405 498.801 434.4 499.1 434.4C499.409 434.4 499.687 434.4 499.932 434.4C500.177 434.389 500.332 434.384 500.396 434.384C500.663 434.384 500.796 434.523 500.796 434.8V444.368C500.796 444.677 500.823 444.907 500.876 445.056C500.929 445.195 501.063 445.291 501.276 445.344C501.351 445.355 501.436 445.371 501.532 445.392C501.628 445.403 501.708 445.419 501.772 445.44C501.921 445.472 501.996 445.557 501.996 445.696C501.996 445.856 501.916 445.947 501.756 445.968C501.724 445.968 501.601 445.973 501.388 445.984C501.175 445.984 500.929 445.984 500.652 445.984C500.375 445.984 500.119 445.989 499.884 446C499.66 446 499.516 446 499.452 446C499.185 446 499.052 445.872 499.052 445.616V444.992C499.031 444.992 498.972 445.045 498.876 445.152C498.78 445.259 498.647 445.397 498.476 445.568C498.305 445.728 498.081 445.872 497.804 446C497.537 446.128 497.207 446.192 496.812 446.192ZM497.18 445.52C497.468 445.52 497.756 445.419 498.044 445.216C498.332 445.013 498.572 444.725 498.764 444.352C498.967 443.968 499.068 443.515 499.068 442.992V441.04C499.068 440.677 498.993 440.336 498.844 440.016C498.695 439.696 498.481 439.435 498.204 439.232C497.927 439.019 497.585 438.912 497.18 438.912C496.711 438.912 496.343 439.061 496.076 439.36C495.809 439.659 495.617 440.075 495.5 440.608C495.393 441.141 495.34 441.765 495.34 442.48C495.34 443.152 495.393 443.691 495.5 444.096C495.617 444.501 495.767 444.805 495.948 445.008C496.14 445.211 496.343 445.349 496.556 445.424C496.769 445.488 496.977 445.52 497.18 445.52ZM503.129 446C502.969 446 502.889 445.909 502.889 445.728C502.889 445.557 502.969 445.472 503.129 445.472C503.566 445.472 503.891 445.392 504.105 445.232C504.318 445.072 504.424 444.8 504.424 444.416V439.84C504.424 439.605 504.398 439.429 504.345 439.312C504.302 439.195 504.206 439.125 504.057 439.104C504.003 439.093 503.902 439.083 503.753 439.072C503.603 439.051 503.454 439.035 503.305 439.024C503.166 439.013 503.07 439.003 503.017 438.992C502.867 438.96 502.793 438.875 502.793 438.736C502.793 438.555 502.873 438.464 503.033 438.464C503.065 438.464 503.203 438.464 503.449 438.464C503.705 438.453 503.987 438.448 504.297 438.448C504.617 438.448 504.905 438.448 505.161 438.448C505.427 438.437 505.593 438.432 505.657 438.432C505.923 438.432 506.057 438.571 506.057 438.848V440C506.206 439.744 506.403 439.483 506.649 439.216C506.894 438.939 507.177 438.709 507.497 438.528C507.827 438.336 508.19 438.24 508.585 438.24C509.203 438.24 509.662 438.368 509.961 438.624C510.259 438.88 510.409 439.211 510.409 439.616C510.409 439.851 510.318 440.091 510.137 440.336C509.966 440.571 509.705 440.688 509.353 440.688C508.958 440.688 508.686 440.587 508.537 440.384C508.398 440.171 508.329 439.963 508.329 439.76C508.329 439.547 508.297 439.397 508.233 439.312C508.169 439.216 508.057 439.168 507.897 439.168C507.619 439.168 507.342 439.301 507.065 439.568C506.798 439.835 506.574 440.181 506.393 440.608C506.222 441.024 506.137 441.477 506.137 441.968V444.384C506.137 444.789 506.259 445.072 506.505 445.232C506.761 445.392 507.081 445.472 507.465 445.472C507.635 445.472 507.721 445.557 507.721 445.728C507.721 445.909 507.635 446 507.465 446C507.358 446 507.107 445.995 506.713 445.984C506.329 445.963 505.849 445.952 505.273 445.952C504.782 445.952 504.329 445.963 503.913 445.984C503.507 445.995 503.246 446 503.129 446ZM513.774 446.192C513.081 446.192 512.505 446.032 512.046 445.712C511.598 445.392 511.374 444.859 511.374 444.112C511.374 443.483 511.566 442.965 511.95 442.56C512.345 442.144 512.894 441.84 513.598 441.648C514.302 441.445 515.124 441.349 516.062 441.36V440.736C516.062 440.16 515.961 439.707 515.758 439.376C515.556 439.035 515.23 438.864 514.782 438.864C514.366 438.864 514.052 438.944 513.838 439.104C513.625 439.253 513.572 439.451 513.678 439.696C513.849 440.059 513.844 440.384 513.662 440.672C513.481 440.949 513.172 441.088 512.734 441.088C512.468 441.088 512.244 441.003 512.062 440.832C511.881 440.651 511.79 440.4 511.79 440.08C511.79 439.76 511.924 439.461 512.19 439.184C512.457 438.907 512.82 438.683 513.278 438.512C513.748 438.331 514.276 438.24 514.862 438.24C515.833 438.24 516.564 438.453 517.054 438.88C517.545 439.307 517.79 439.893 517.79 440.64V444.032C517.79 444.459 517.833 444.736 517.918 444.864C518.014 444.981 518.132 445.04 518.27 445.04C518.377 445.04 518.468 445.024 518.542 444.992C518.628 444.949 518.692 444.907 518.734 444.864C518.852 444.747 518.969 444.752 519.086 444.88C519.14 444.933 519.161 444.992 519.15 445.056C519.14 445.12 519.113 445.184 519.07 445.248C518.921 445.493 518.734 445.701 518.51 445.872C518.297 446.032 518.036 446.112 517.726 446.112C517.332 446.112 516.996 446.011 516.718 445.808C516.452 445.605 516.265 445.291 516.158 444.864C515.966 445.216 515.689 445.525 515.326 445.792C514.974 446.059 514.457 446.192 513.774 446.192ZM514.574 445.232C514.884 445.232 515.15 445.147 515.374 444.976C515.598 444.795 515.769 444.581 515.886 444.336C516.004 444.091 516.062 443.856 516.062 443.632V441.92C515.22 441.899 514.542 442.032 514.03 442.32C513.518 442.608 513.262 443.115 513.262 443.84C513.262 444.256 513.342 444.565 513.502 444.768C513.662 444.96 513.844 445.088 514.046 445.152C514.26 445.205 514.436 445.232 514.574 445.232Z" fill="black"/>
<g filter="url(#filter3_i_35_26)">
<path fill-rule="evenodd" clip-rule="evenodd" d="M447 433.265C447 429.395 450.13 426.265 454 426.265C457.87 426.265 461 429.395 461 433.265C461 437.435 456.58 443.185 454.77 445.375C454.37 445.855 453.64 445.855 453.24 445.375C451.42 443.185 447 437.435 447 433.265ZM451.5 433.265C451.5 434.645 452.62 435.765 454 435.765C455.38 435.765 456.5 434.645 456.5 433.265C456.5 431.885 455.38 430.765 454 430.765C452.62 430.765 451.5 431.885 451.5 433.265Z" fill="black"/>
</g>
<path d="M69 40C201 52.5 465 97.4 465 177C465 276.5 230.5 235.5 216.5 321C205.3 389.4 357.833 431.833 435.5 444.5" stroke="black" stroke-width="3" stroke-dasharray="15 15"/>
<defs>
<filter id="filter0_i_35_26" x="428" y="167.265" width="14" height="23.47" filterUnits="userSpaceOnUse" color-interpolation-filters="sRGB">
<feFlood flood-opacity="0" result="BackgroundImageFix"/>
<feBlend mode="normal" in="SourceGraphic" in2="BackgroundImageFix" result="shape"/>
<feColorMatrix in="SourceAlpha" type="matrix" values="0 0 0 0 0 0 0 0 0 0 0 0 0 0 0 0 0 0 127 0" result="hardAlpha"/>
<feOffset dy="4"/>
<feGaussianBlur stdDeviation="2"/>
<feComposite in2="hardAlpha" operator="arithmetic" k2="-1" k3="1"/>
<feColorMatrix type="matrix" values="0 0 0 0 0 0 0 0 0 0 0 0 0 0 0 0 0 0 0.25 0"/>
<feBlend mode="normal" in2="shape" result="effect1_innerShadow_35_26"/>
</filter>
<filter id="filter1_i_35_26" x="62" y="2.26501" width="14" height="23.47" filterUnits="userSpaceOnUse" color-interpolation-filters="sRGB">
<feFlood flood-opacity="0" result="BackgroundImageFix"/>
<feBlend mode="normal" in="SourceGraphic" in2="BackgroundImageFix" result="shape"/>
<feColorMatrix in="SourceAlpha" type="matrix" values="0 0 0 0 0 0 0 0 0 0 0 0 0 0 0 0 0 0 127 0" result="hardAlpha"/>
<feOffset dy="4"/>
<feGaussianBlur stdDeviation="2"/>
<feComposite in2="hardAlpha" operator="arithmetic" k2="-1" k3="1"/>
<feColorMatrix type="matrix" values="0 0 0 0 0 0 0 0 0 0 0 0 0 0 0 0 0 0 0.25 0"/>
<feBlend mode="normal" in2="shape" result="effect1_innerShadow_35_26"/>
</filter>
<filter id="filter2_i_35_26" x="197" y="282.265" width="14" height="23.47" filterUnits="userSpaceOnUse" color-interpolation-filters="sRGB">
<feFlood flood-opacity="0" result="BackgroundImageFix"/>
<feBlend mode="normal" in="SourceGraphic" in2="BackgroundImageFix" result="shape"/>
<feColorMatrix in="SourceAlpha" type="matrix" values="0 0 0 0 0 0 0 0 0 0 0 0 0 0 0 0 0 0 127 0" result="hardAlpha"/>
<feOffset dy="4"/>
<feGaussianBlur stdDeviation="2"/>
<feComposite in2="hardAlpha" operator="arithmetic" k2="-1" k3="1"/>
<feColorMatrix type="matrix" values="0 0 0 0 0 0 0 0 0 0 0 0 0 0 0 0 0 0 0.25 0"/>
<feBlend mode="normal" in2="shape" result="effect1_innerShadow_35_26"/>
</filter>
<filter id="filter3_i_35_26" x="447" y="426.265" width="14" height="23.47" filterUnits="userSpaceOnUse" color-interpolation-filters="sRGB">
<feFlood flood-opacity="0" result="BackgroundImageFix"/>
<feBlend mode="normal" in="SourceGraphic" in2="BackgroundImageFix" result="shape"/>
<feColorMatrix in="SourceAlpha" type="matrix" values="0 0 0 0 0 0 0 0 0 0 0 0 0 0 0 0 0 0 127 0" result="hardAlpha"/>
<feOffset dy="4"/>
<feGaussianBlur stdDeviation="2"/>
<feComposite in2="hardAlpha" operator="arithmetic" k2="-1" k3="1"/>
<feColorMatrix type="matrix" values="0 0 0 0 0 0 0 0 0 0 0 0 0 0 0 0 0 0 0.25 0"/>
<feBlend mode="normal" in2="shape" result="effect1_innerShadow_35_26"/>
</filter>
</defs>
</svg>
